<svg id="visual" viewBox="0 0 900 600" width="900" height="600" xmlns="http://www.w3.org/2000/svg" xmlns:xlink="http://www.w3.org/1999/xlink" version="1.1"><rect x="0" y="0" width="900" height="600" fill="#383838"></rect><path d="M0 394L39 397L78 477L117 395L157 390L196 440L235 453L274 414L313 466L352 390L391 404L430 401L470 383L509 432L548 403L587 492L626 434L665 433L704 472L743 415L783 490L822 403L861 472L900 406L900 601L861 601L822 601L783 601L743 601L704 601L665 601L626 601L587 601L548 601L509 601L470 601L430 601L391 601L352 601L313 601L274 601L235 601L196 601L157 601L117 601L78 601L39 601L0 601Z" fill="#871400"></path><path d="M0 502L39 437L78 421L117 420L157 422L196 473L235 464L274 456L313 498L352 499L391 400L430 409L470 444L509 478L548 388L587 416L626 437L665 483L704 400L743 433L783 459L822 467L861 468L900 453L900 601L861 601L822 601L783 601L743 601L704 601L665 601L626 601L587 601L548 601L509 601L470 601L430 601L391 601L352 601L313 601L274 601L235 601L196 601L157 601L117 601L78 601L39 601L0 601Z" fill="#911e02"></path><path d="M0 472L39 488L78 498L117 483L157 476L196 457L235 469L274 421L313 489L352 497L391 434L430 419L470 503L509 426L548 468L587 505L626 513L665 520L704 473L743 488L783 459L822 417L861 494L900 506L900 601L861 601L822 601L783 601L743 601L704 601L665 601L626 601L587 601L548 601L509 601L470 601L430 601L391 601L352 601L313 601L274 601L235 601L196 601L157 601L117 601L78 601L39 601L0 601Z" fill="#9b2604"></path><path d="M0 460L39 467L78 434L117 498L157 527L196 485L235 468L274 529L313 435L352 510L391 426L430 455L470 484L509 490L548 505L587 511L626 449L665 507L704 478L743 438L783 473L822 520L861 423L900 518L900 601L861 601L822 601L783 601L743 601L704 601L665 601L626 601L587 601L548 601L509 601L470 601L430 601L391 601L352 601L313 601L274 601L235 601L196 601L157 601L117 601L78 601L39 601L0 601Z" fill="#a52f05"></path><path d="M0 501L39 476L78 463L117 515L157 446L196 463L235 469L274 451L313 496L352 501L391 512L430 463L470 534L509 521L548 527L587 487L626 471L665 463L704 540L743 484L783 500L822 537L861 460L900 450L900 601L861 601L822 601L783 601L743 601L704 601L665 601L626 601L587 601L548 601L509 601L470 601L430 601L391 601L352 601L313 601L274 601L235 601L196 601L157 601L117 601L78 601L39 601L0 601Z" fill="#af3706"></path><path d="M0 501L39 483L78 490L117 488L157 489L196 543L235 473L274 477L313 473L352 457L391 479L430 497L470 486L509 488L548 504L587 483L626 460L665 473L704 478L743 525L783 541L822 531L861 520L900 534L900 601L861 601L822 601L783 601L743 601L704 601L665 601L626 601L587 601L548 601L509 601L470 601L430 601L391 601L352 601L313 601L274 601L235 601L196 601L157 601L117 601L78 601L39 601L0 601Z" fill="#b94007"></path><path d="M0 476L39 477L78 477L117 510L157 523L196 515L235 509L274 542L313 538L352 542L391 502L430 549L470 528L509 498L548 497L587 555L626 538L665 557L704 494L743 492L783 532L822 476L861 542L900 532L900 601L861 601L822 601L783 601L743 601L704 601L665 601L626 601L587 601L548 601L509 601L470 601L430 601L391 601L352 601L313 601L274 601L235 601L196 601L157 601L117 601L78 601L39 601L0 601Z" fill="#c34807"></path><path d="M0 562L39 544L78 561L117 560L157 564L196 502L235 507L274 537L313 545L352 520L391 499L430 498L470 565L509 546L548 555L587 557L626 558L665 562L704 520L743 545L783 534L822 531L861 560L900 534L900 601L861 601L822 601L783 601L743 601L704 601L665 601L626 601L587 601L548 601L509 601L470 601L430 601L391 601L352 601L313 601L274 601L235 601L196 601L157 601L117 601L78 601L39 601L0 601Z" fill="#cd5108"></path><path d="M0 533L39 535L78 551L117 519L157 542L196 544L235 573L274 519L313 541L352 570L391 545L430 546L470 544L509 538L548 530L587 573L626 570L665 520L704 514L743 522L783 548L822 544L861 560L900 526L900 601L861 601L822 601L783 601L743 601L704 601L665 601L626 601L587 601L548 601L509 601L470 601L430 601L391 601L352 601L313 601L274 601L235 601L196 601L157 601L117 601L78 601L39 601L0 601Z" fill="#d75909"></path><path d="M0 534L39 546L78 575L117 542L157 541L196 564L235 575L274 569L313 553L352 546L391 538L430 580L470 575L509 569L548 572L587 576L626 549L665 561L704 558L743 546L783 547L822 559L861 550L900 530L900 601L861 601L822 601L783 601L743 601L704 601L665 601L626 601L587 601L548 601L509 601L470 601L430 601L391 601L352 601L313 601L274 601L235 601L196 601L157 601L117 601L78 601L39 601L0 601Z" fill="#e16209"></path><path d="M0 552L39 573L78 569L117 582L157 569L196 559L235 576L274 586L313 547L352 577L391 585L430 574L470 572L509 583L548 559L587 568L626 585L665 582L704 586L743 586L783 582L822 576L861 554L900 589L900 601L861 601L822 601L783 601L743 601L704 601L665 601L626 601L587 601L548 601L509 601L470 601L430 601L391 601L352 601L313 601L274 601L235 601L196 601L157 601L117 601L78 601L39 601L0 601Z" fill="#eb6a0a"></path><path d="M0 587L39 580L78 578L117 596L157 596L196 585L235 582L274 582L313 587L352 569L391 576L430 567L470 576L509 569L548 591L587 591L626 570L665 591L704 568L743 581L783 580L822 591L861 597L900 567L900 601L861 601L822 601L783 601L743 601L704 601L665 601L626 601L587 601L548 601L509 601L470 601L430 601L391 601L352 601L313 601L274 601L235 601L196 601L157 601L117 601L78 601L39 601L0 601Z" fill="#f5730a"></path></svg>